<!DOCTYPE svg PUBLIC "-//W3C//DTD SVG 1.1//EN" "http://www.w3.org/Graphics/SVG/1.1/DTD/svg11.dtd">
<!-- Uploaded to: SVG Repo, www.svgrepo.com, Transformed by: SVG Repo Mixer Tools -->
<svg fill="#ffffff" width="800px" height="800px" viewBox="0 0 32 32" id="OBJECT" xmlns="http://www.w3.org/2000/svg">
<g id="SVGRepo_bgCarrier" stroke-width="0"/>
<g id="SVGRepo_tracerCarrier" stroke-linecap="round" stroke-linejoin="round"/>
<g id="SVGRepo_iconCarrier">
<title/>
<path d="M30,15a1,1,0,0,0-1,1,13,13,0,1,1-2.83-8.09l-1.5-.35a1,1,0,0,0-.46,1.94l3.9.92a.85.85,0,0,0,.23,0,1,1,0,0,0,1-.77l.92-3.89a1,1,0,0,0-1.95-.46l-.37,1.56A15,15,0,1,0,31,16,1,1,0,0,0,30,15Z"/>
<rect height="4" width="10" x="11" y="16"/>
<path d="M21,12a3,3,0,0,0-2-2.82V7a2,2,0,0,0-2-2H15a2,2,0,0,0-2,2V9.18A3,3,0,0,0,11,12v2H21Z"/>
<path d="M11,24a3,3,0,0,0,3,3h4a3,3,0,0,0,3-3V22H11Z"/>
</g>
</svg>