<!DOCTYPE svg PUBLIC "-//W3C//DTD SVG 1.1//EN" "http://www.w3.org/Graphics/SVG/1.1/DTD/svg11.dtd">

<!-- Uploaded to: SVG Repo, www.svgrepo.com, Transformed by: SVG Repo Mixer Tools -->
<svg width="800px" height="800px" viewBox="0 0 24 24" data-name="016_FOOD" id="_016_FOOD" xmlns="http://www.w3.org/2000/svg" fill="#ffffff">

<g id="SVGRepo_bgCarrier" stroke-width="0"/>

<g id="SVGRepo_tracerCarrier" stroke-linecap="round" stroke-linejoin="round"/>

<g id="SVGRepo_iconCarrier">


<path class="cls-1" d="M19,13H5a1,1,0,0,1,0-2H19a1,1,0,0,1,0,2Z" fill="#DF1463"/>

<path class="cls-1" d="M19.74,9H4.26a1,1,0,0,1-.95-1.3C4.35,4.35,7.92,2,12,2s7.65,2.35,8.69,5.7a1,1,0,0,1-1,1.3ZM5.83,7H18.17A7.34,7.34,0,0,0,12,4,7.34,7.34,0,0,0,5.83,7Z" />

<path class="cls-1" d="M16,21H8a5,5,0,0,1-5-5,1,1,0,0,1,1-1h7.71a1,1,0,0,1,0,2H5.17A3,3,0,0,0,8,19h8a3,3,0,0,0,2.83-2H15.71a1,1,0,0,1,0-2H20a1,1,0,0,1,1,1A5,5,0,0,1,16,21Z"/>

</g>

</svg>